<svg xmlns="http://www.w3.org/2000/svg" viewBox="0 0 512 640" x="0px" y="0px"><title>Smile-Emoji-Emotion-Face-Expression-Feeling</title><circle cx="180.17" cy="229.24" r="19.29"/><circle cx="330.3" cy="229.24" r="19.29"/><path d="M256,86C162.26,86,86,162.26,86,256s76.26,170,170,170,170-76.26,170-170S349.74,86,256,86Zm0,320c-82.71,0-150-67.29-150-150s67.29-150,150-150,150,67.29,150,150S338.71,406,256,406Z"/><path d="M255.84,59.4a10,10,0,0,0,10-10V10.33a10,10,0,1,0-20,0V49.4A10,10,0,0,0,255.84,59.4Z"/><path d="M255.84,452.6a10,10,0,0,0-10,10v39.07a10,10,0,1,0,20,0V462.6A10,10,0,0,0,255.84,452.6Z"/><path d="M501.51,246H462.44a10,10,0,0,0,0,20h39.07a10,10,0,0,0,0-20Z"/><path d="M49.24,246H10.17a10,10,0,0,0,0,20H49.24a10,10,0,1,0,0-20Z"/><path d="M409,395a10,10,0,0,0-14.15,14.14l27.63,27.63a10,10,0,1,0,14.14-14.15Z"/><path d="M102.68,117a10,10,0,0,0,14.14-14.14L89.19,75.21A10,10,0,0,0,75.05,89.36Z"/><path d="M102.68,395,75.05,422.64a10,10,0,1,0,14.14,14.15l27.63-27.63A10,10,0,0,0,102.68,395Z"/><path d="M422.48,75.21l-27.63,27.63A10,10,0,0,0,409,117l27.62-27.62a10,10,0,0,0-14.14-14.15Z"/><path d="M288.74,256.54a10,10,0,0,0-9.51,6.94h0l0-.15c-.5,1.38-5.39,13.53-24,13.53s-23.53-12.15-24-13.53l0,.15h0a10,10,0,0,0-19.51,3,9.89,9.89,0,0,0,.48,3.05h0c.36,1.11,9.14,27.27,43,27.27s42.66-26.16,43-27.27h0a9.89,9.89,0,0,0,.48-3.05A10,10,0,0,0,288.74,256.54Z"/>
<!-- <text x="0" y="527" fill="#000000" font-size="5px" font-weight="bold" font-family="'Helvetica Neue', Helvetica, Arial-Unicode, Arial, Sans-serif">Created by AomAm</text><text x="0" y="532" fill="#000000" font-size="5px" font-weight="bold" font-family="'Helvetica Neue', Helvetica, Arial-Unicode, Arial, Sans-serif">from the Noun Project</text> -->
</svg>