<svg xmlns="http://www.w3.org/2000/svg" viewBox="0 0 512 640" x="0px" y="0px"><title>Laughing-Emoji-Emotion-Face-Expression-Feeling_3</title><path d="M255.84,59.4a10,10,0,0,0,10-10V10.33a10,10,0,1,0-20,0V49.4A10,10,0,0,0,255.84,59.4Z"/><path d="M255.84,452.6a10,10,0,0,0-10,10v39.07a10,10,0,1,0,20,0V462.6A10,10,0,0,0,255.84,452.6Z"/><path d="M501.51,246H462.44a10,10,0,0,0,0,20h39.07a10,10,0,0,0,0-20Z"/><path d="M49.24,246H10.17a10,10,0,0,0,0,20H49.24a10,10,0,1,0,0-20Z"/><path d="M409,395a10,10,0,0,0-14.15,14.14l27.63,27.63a10,10,0,1,0,14.14-14.15Z"/><path d="M102.68,117a10,10,0,0,0,14.14-14.14L89.19,75.21A10,10,0,0,0,75.05,89.36Z"/><path d="M102.68,395,75.05,422.64a10,10,0,0,0,14.14,14.15l27.63-27.63A10,10,0,0,0,102.68,395Z"/><path d="M422.48,75.21l-27.63,27.63A10,10,0,0,0,409,117l27.62-27.62a10,10,0,0,0-14.14-14.15Z"/><path d="M300.86,248H211.08a10,10,0,0,0-10,10,54.89,54.89,0,0,0,97,35.25h0A54.91,54.91,0,0,0,310.86,258,10,10,0,0,0,300.86,248Zm-11.47,20a34.88,34.88,0,0,1-4.05,8.82H226.6a35.23,35.23,0,0,1-4-8.82Z"/><path d="M324.8,199.63a27.58,27.58,0,0,0-27.55,27.55,10,10,0,1,0,20,0,7.56,7.56,0,0,1,15.11,0,10,10,0,0,0,20,0A27.58,27.58,0,0,0,324.8,199.63Z"/><path d="M215.58,227.18a27.55,27.55,0,0,0-55.1,0,10,10,0,0,0,20,0,7.55,7.55,0,0,1,15.1,0,10,10,0,0,0,20,0Z"/><path d="M256,86C162.26,86,86,162.26,86,256s76.26,170,170,170,170-76.26,170-170S349.74,86,256,86Zm0,320c-82.71,0-150-67.29-150-150s67.29-150,150-150,150,67.29,150,150S338.71,406,256,406Z"/></svg>